# xmcd
#
# Track frame offsets:
#	150
#	16951
#	44137
#	66776
#	91423
#	111425
#	139861
#	157929
#	177480
#	193899
#	213872
#	246987
#	263423
#	285958
#	302737
#	331316
#
# Disc length: 4691 seconds
#
# Revision: 1
# Processed by: cddbd v1.5.1PL0 Copyright (c) Steve Scherf et al.
# Submitted via: audiograbber 1.83.01
#
DISCID=e7125110
DTITLE=Sade - The best of
DYEAR=1999
DGENRE=Blues
TTITLE0=Your love is king
TTITLE1=Hang On To Your Love          
TTITLE2=Smooth Operator
TTITLE3=Jezebel
TTITLE4=The sweetest taboo
TTITLE5=Is It A Crime
TTITLE6=Never as Good as the First Tim
TTITLE7=Love is stronger than pride
TTITLE8=Paradise                      
TTITLE9=Nothing Can Come Between Us
TTITLE10=No Ordinary Love
TTITLE11=Like A Tattoo
TTITLE12=Kiss Of Life
TTITLE13=Please Send Me Someone To Love
TTITLE14=Cherish The day
TTITLE15=Pearls
EXTD=
EXTT0=
EXTT1=
EXTT2=
EXTT3=
EXTT4=
EXTT5=
EXTT6=
EXTT7=
EXTT8=
EXTT9=
EXTT10=
EXTT11=
EXTT12=
EXTT13=
EXTT14=
EXTT15=
PLAYORDER=
